<mxfile host="app.diagrams.net" modified="2024-06-14T17:43:56.830Z" agent="Mozilla/5.0 (X11; Linux x86_64) AppleWebKit/537.36 (KHTML, like Gecko) Chrome/124.0.0.0 Safari/537.36" etag="xBVQck_R9q7UV4G22HLu" version="24.5.4" type="github">
  <diagram name="PÃ¡gina-1" id="BVNaw8k95PtzeeHjWIfI">
    <mxGraphModel dx="880" dy="428" grid="1" gridSize="10" guides="1" tooltips="1" connect="1" arrows="1" fold="1" page="1" pageScale="1" pageWidth="827" pageHeight="1169" math="0" shadow="0">
      <root>
        <mxCell id="0" />
        <mxCell id="1" parent="0" />
        <mxCell id="D6NKaHbAstgxj_ZVAh3t-1" value="" style="whiteSpace=wrap;html=1;aspect=fixed;" vertex="1" parent="1">
          <mxGeometry x="140" y="140" width="340" height="340" as="geometry" />
        </mxCell>
      </root>
    </mxGraphModel>
  </diagram>
</mxfile>
